<?xml version="1.0" standalone="no"?>
<!DOCTYPE svg PUBLIC "-//W3C//DTD SVG 20010904//EN"
 "http://www.w3.org/TR/2001/REC-SVG-20010904/DTD/svg10.dtd">
<svg version="1.0" xmlns="http://www.w3.org/2000/svg"
 width="700.000000pt" height="700.000000pt" viewBox="0 0 700.000000 700.000000"
 preserveAspectRatio="xMidYMid meet">
<metadata>
Created by potrace 1.11, written by Peter Selinger 2001-2013
</metadata>
<g transform="translate(0.000000,700.000000) scale(0.100000,-0.100000)"
fill="#000000" stroke="none">
<path d="M2330 6023 c-368 -27 -758 -147 -1065 -328 l-100 -59 130 -33 c230
-58 757 -184 850 -203 211 -43 470 -50 565 -15 83 31 87 30 109 -6 24 -39 27
-96 7 -142 -17 -41 -76 -93 -114 -102 -17 -3 -37 -14 -46 -23 -14 -16 -296
-1259 -296 -1305 0 -14 6 -16 28 -11 78 18 182 82 312 190 308 256 508 617
656 1178 30 114 51 177 65 193 27 28 115 47 191 40 154 -14 266 -123 284 -277
12 -105 -47 -312 -134 -470 -119 -216 -363 -482 -662 -721 -115 -92 -140 -117
-140 -138 0 -40 85 -454 135 -657 89 -362 231 -732 346 -902 146 -214 304
-342 479 -387 79 -21 240 -21 335 -1 76 16 71 11 182 150 352 436 543 980 543
1549 0 196 -11 313 -46 492 -128 650 -522 1231 -1084 1597 -389 254 -906 403
-1375 396 -60 -1 -130 -3 -155 -5z"/>
<path d="M825 5119 c-100 -13 -167 -35 -256 -82 -77 -40 -81 -44 -145 -141
-171 -261 -314 -627 -363 -926 -36 -223 -42 -515 -16 -730 103 -828 622 -1555
1370 -1920 357 -174 691 -250 1097 -250 341 0 596 51 970 193 143 54 497 260
539 315 8 10 -1 6 -21 -8 -106 -78 -139 -100 -180 -120 -82 -42 -86 -42 -241
9 -79 27 -164 58 -189 71 -397 203 -675 704 -849 1530 -22 102 -49 250 -61
330 -13 80 -24 151 -26 158 -2 8 -23 12 -59 12 -65 0 -91 -19 -100 -77 -9 -48
-72 -334 -124 -563 -22 -96 -68 -303 -101 -460 -37 -172 -71 -305 -86 -336
-79 -166 -339 -271 -520 -210 -71 23 -97 49 -89 89 9 41 297 1261 410 1732
208 870 306 1307 295 1320 -7 8 -56 15 -148 19 -75 4 -249 16 -387 27 -298 23
-623 32 -720 18z"/>
</g>
</svg>
