<?xml version="1.0" standalone="no"?>
<!DOCTYPE svg PUBLIC "-//W3C//DTD SVG 20010904//EN"
 "http://www.w3.org/TR/2001/REC-SVG-20010904/DTD/svg10.dtd">
<svg version="1.0" xmlns="http://www.w3.org/2000/svg"
 width="512.000000pt" height="512.000000pt" viewBox="0 0 512.000000 512.000000"
 preserveAspectRatio="xMidYMid meet">
<metadata>
Created by potrace 1.11, written by Peter Selinger 2001-2013
</metadata>
<g transform="translate(0.000000,512.000000) scale(0.100000,-0.100000)"
fill="#000000" stroke="none">
<path d="M2525 4461 c-140 -65 -167 -247 -52 -348 95 -84 240 -63 312 45 112
169 -76 388 -260 303z"/>
<path d="M1905 4373 c-87 -19 -151 -66 -187 -137 -59 -113 2 -270 124 -320 51
-22 143 -20 193 3 150 70 184 274 64 388 -50 48 -140 78 -194 66z"/>
<path d="M3225 4286 c-85 -39 -118 -137 -74 -216 60 -106 222 -104 273 4 34
71 12 149 -55 199 -34 25 -105 31 -144 13z"/>
<path d="M1311 3999 c-131 -25 -223 -168 -191 -298 33 -140 176 -227 310 -188
111 33 183 128 183 242 0 159 -143 275 -302 244z"/>
<path d="M3815 3886 c-50 -22 -77 -60 -82 -113 -5 -59 19 -102 70 -126 48 -23
88 -21 128 6 93 62 83 191 -17 233 -41 17 -60 17 -99 0z"/>
<path d="M2545 3827 c-56 -22 -74 -37 -102 -84 -77 -131 14 -287 167 -288 161
0 252 193 147 312 -56 64 -140 88 -212 60z"/>
<path d="M1954 3671 c-69 -31 -124 -117 -124 -193 0 -14 7 -45 15 -69 70 -196
353 -180 407 24 43 164 -139 310 -298 238z"/>
<path d="M3156 3680 c-65 -20 -115 -103 -100 -167 23 -99 128 -153 212 -109
54 28 75 62 79 124 5 72 -19 115 -80 142 -46 21 -66 23 -111 10z"/>
<path d="M860 3388 c-37 -22 -64 -49 -85 -82 -26 -43 -30 -59 -30 -121 0 -62
4 -78 30 -120 95 -154 310 -159 405 -8 74 116 37 264 -83 333 -43 25 -63 30
-117 30 -57 0 -74 -5 -120 -32z"/>
<path d="M4183 3290 c-87 -52 -78 -178 14 -217 48 -20 95 -10 132 28 38 38 48
84 27 132 -28 69 -110 96 -173 57z"/>
<path d="M1585 3271 c-104 -26 -165 -104 -165 -210 0 -62 10 -89 52 -136 85
-98 230 -99 315 -2 87 100 64 256 -49 320 -49 28 -109 39 -153 28z"/>
<path d="M2545 3234 c-46 -24 -63 -43 -81 -90 -38 -101 36 -204 148 -204 158
0 208 226 64 291 -50 23 -92 24 -131 3z"/>
<path d="M3615 3243 c-56 -14 -105 -76 -105 -133 0 -83 58 -140 144 -140 43 0
53 4 86 38 25 25 41 51 46 76 17 94 -78 182 -171 159z"/>
<path d="M2120 3058 c-49 -34 -72 -71 -77 -125 -4 -39 0 -55 19 -82 33 -49 69
-73 119 -78 57 -6 124 28 151 77 25 46 20 125 -10 167 -45 63 -141 82 -202 41z"/>
<path d="M2942 3060 c-45 -27 -72 -76 -72 -128 0 -90 54 -152 140 -160 158
-15 233 194 101 284 -46 31 -121 33 -169 4z"/>
<path d="M753 2695 c-77 -35 -113 -95 -113 -186 0 -59 4 -72 33 -115 43 -64
93 -89 178 -89 55 0 72 5 107 27 147 98 120 320 -47 376 -52 18 -101 14 -158
-13z"/>
<path d="M1378 2680 c-134 -71 -133 -271 2 -340 72 -37 182 -19 231 36 32 36
49 84 49 134 0 113 -79 191 -192 190 -33 -1 -67 -8 -90 -20z"/>
<path d="M2532 2659 c-121 -60 -121 -239 1 -298 77 -37 147 -23 204 42 74 85
42 219 -64 263 -46 20 -91 17 -141 -7z"/>
<path d="M1977 2655 c-148 -51 -142 -254 8 -294 107 -28 207 60 192 170 -13
95 -110 155 -200 124z"/>
<path d="M3146 2660 c-91 -28 -137 -152 -83 -230 37 -56 72 -75 132 -74 95 0
163 77 152 172 -6 56 -32 91 -87 120 -47 23 -67 26 -114 12z"/>
<path d="M3734 2621 c-32 -20 -64 -74 -64 -110 0 -130 182 -180 250 -68 71
116 -69 250 -186 178z"/>
<path d="M4323 2610 c-28 -11 -63 -66 -63 -98 0 -31 25 -77 52 -96 43 -30 114
-17 150 28 21 25 24 103 5 126 -35 45 -92 61 -144 40z"/>
<path d="M2135 2236 c-117 -52 -126 -213 -15 -275 103 -58 230 14 230 129 0
115 -113 191 -215 146z"/>
<path d="M2952 2234 c-105 -54 -111 -212 -10 -274 40 -24 107 -26 154 -4 100
48 112 201 21 266 -40 29 -121 34 -165 12z"/>
<path d="M2544 2070 c-32 -13 -82 -77 -89 -114 -18 -95 56 -186 152 -186 77 0
143 57 157 136 9 47 -26 120 -73 151 -35 24 -105 30 -147 13z"/>
<path d="M1519 2027 c-94 -63 -88 -206 11 -257 76 -39 156 -16 197 56 59 102
-10 224 -127 224 -32 0 -58 -7 -81 -23z"/>
<path d="M3588 2014 c-54 -29 -75 -117 -42 -174 64 -108 234 -61 234 65 0 99
-103 158 -192 109z"/>
<path d="M900 1967 c-126 -84 -80 -271 69 -284 81 -7 150 48 165 133 9 47 -26
120 -73 151 -46 31 -116 31 -161 0z"/>
<path d="M4200 1923 c-68 -35 -77 -118 -19 -167 35 -30 67 -33 109 -11 37 19
50 43 50 92 0 30 -7 46 -27 65 -38 36 -71 42 -113 21z"/>
<path d="M1951 1603 c-44 -22 -71 -67 -71 -121 0 -57 25 -98 75 -122 51 -25
69 -25 122 -1 49 23 73 62 73 123 0 106 -103 168 -199 121z"/>
<path d="M3150 1568 c-41 -28 -60 -61 -60 -107 0 -109 138 -165 216 -87 30 30
34 40 34 85 0 44 -5 56 -33 87 -44 48 -105 57 -157 22z"/>
<path d="M2550 1422 c-39 -21 -70 -72 -70 -117 0 -62 63 -125 125 -125 37 0
91 27 109 54 71 109 -51 249 -164 188z"/>
<path d="M1301 1382 c-97 -52 -90 -185 11 -238 52 -27 108 -13 158 41 20 21
25 37 25 80 0 43 -5 59 -25 80 -53 56 -110 69 -169 37z"/>
<path d="M3824 1350 c-29 -12 -64 -58 -64 -86 0 -63 43 -106 107 -106 103 0
129 157 31 191 -36 13 -45 13 -74 1z"/>
<path d="M1880 993 c-92 -47 -87 -180 7 -220 102 -42 202 58 160 160 -28 65
-104 93 -167 60z"/>
<path d="M3234 961 c-86 -52 -50 -181 51 -181 103 0 137 137 46 184 -39 21
-59 20 -97 -3z"/>
<path d="M2534 826 c-74 -74 -27 -185 77 -186 42 0 51 4 79 37 29 32 32 41 27
82 -7 61 -50 101 -108 101 -33 0 -47 -6 -75 -34z"/>
</g>
</svg>
