<svg id="Layer_1" data-name="Layer 1" xmlns="http://www.w3.org/2000/svg" viewBox="0 0 1440.88 140"><defs><style>.cls-1{fill:#e11000;}</style></defs><title>logo-full</title><path class="cls-1" d="M604.24,0H526.12a6.72,6.72,0,0,0-7,5.32L498,93.45,480.48,5.6C479.64,2,477.4,0,473.76,0H444.92l0,.3A6.43,6.43,0,0,0,443,0H392.84a5,5,0,0,0-5,5.6L401,134.4a5.92,5.92,0,0,0,6.16,5.6H443a5.29,5.29,0,0,0,5.6-5.6V68.6h3.36l16,66.08a6.72,6.72,0,0,0,7,5.32h42.56a6.72,6.72,0,0,0,7-5.32L541.8,68.32h3.64V134.4A5.29,5.29,0,0,0,551,140h40.6a5.92,5.92,0,0,0,6.16-5.6L609.28,5.6A5,5,0,0,0,604.24,0Z"/><path class="cls-1" d="M348,0h-39.2a5.29,5.29,0,0,0-5.6,5.6V134.4a5.29,5.29,0,0,0,5.6,5.6h53.48a5,5,0,0,0,5-5.6L354.2,5.6A5.92,5.92,0,0,0,348,0Z"/><path class="cls-1" d="M269.08,89.88H220L229.32,5.6a5,5,0,0,0-5-5.6h-44.8a5.92,5.92,0,0,0-6.16,5.6L161.84,134.4a5,5,0,0,0,5,5.6h102.2a5.29,5.29,0,0,0,5.6-5.6V95.48A5.29,5.29,0,0,0,269.08,89.88Z"/><path class="cls-1" d="M703.36,0H649a5.92,5.92,0,0,0-6.16,5.6L631.4,134.4a5,5,0,0,0,5,5.6h46.2a5.29,5.29,0,0,0,5.6-5.6V107.8h19c37.24,0,60.76-23.24,60.76-52.36C768,22.68,745.92,0,703.36,0Zm-5,71.48H688.24V42h9.87c5.6,0,14.81,4.19,14.81,14.75S703.15,71.48,698.39,71.48Z"/><path class="cls-1" d="M1323,5.6c-.56-3.64-2.8-5.6-6.44-5.6h-92.12c-3.64,0-6.2,2-7,5.32l-30.8,129.36a4.28,4.28,0,0,0,4.2,5.32h44.8c3.64,0,6.22-1.95,7-5.32l3.24-14H1288l3.64,14a6.74,6.74,0,0,0,7,5.32h40.6a4.67,4.67,0,0,0,4.76-5.6ZM1253.92,86l11.81-51L1279,86Z"/><path class="cls-1" d="M1435.56,72.8l-18.42,11a24.87,24.87,0,0,0-20.5-11c-15.12,0-27.44,10.36-24.36,29.4l5.6,33.6c.56,2.8,2,4.2,4.76,4.2H1435a4,4,0,0,0,4.2-4.2v-16a4,4,0,0,0-4.2-4.2h-13.72V105.7l14.28-7.14a6.21,6.21,0,0,0,3.64-6.16V74.76A2.52,2.52,0,0,0,1435.56,72.8Zm-31.64,42.84h-12v-7.56c0-6.72,2.24-9.52,5.88-9.52s6.16,4.2,6.16,9.52Z"/><path class="cls-1" d="M1440.88,31.08c0-18.48-10.36-31.08-31.36-31.08h-49.28a3.49,3.49,0,0,0-3.36,4.2l2.52,15.68c.56,2.8,2,4.2,4.76,4.2h45.92c5.88,0,8.12,3.08,8.12,7s-2.8,7.28-8.12,7.28h-43.4a3.69,3.69,0,0,0-3.64,4.2l2.52,16c.56,2.8,2,4.2,4.76,4.2h39.2C1430.24,62.72,1440.88,49.56,1440.88,31.08Z"/><path class="cls-1" d="M996.24,5.6C995.68,2,993.44,0,989.8,0h-91c-3.64,0-5.88,2-6.44,5.6L868.84,134.4a4.67,4.67,0,0,0,4.76,5.6h37.52a6.72,6.72,0,0,0,7-5.32l3.24-14h42.12l3.64,14a6.72,6.72,0,0,0,7,5.32h35a4.67,4.67,0,0,0,4.76-5.6ZM929.4,86l11.81-51,13.25,51Z"/><path class="cls-1" d="M1108.8,0h-74.2a4.73,4.73,0,0,0-4.76,5.6l17.64,128.8c.5,3.65,2.8,5.6,6.44,5.6h49.84c41.44,0,72.8-32.2,72.8-70.56C1176.56,28.28,1154.72,0,1108.8,0Zm-6.72,93.24h-9v-47h9c11.76,0,21.56,6.72,21.56,24.08C1123.64,84.28,1114.68,93.24,1102.08,93.24Z"/><path class="cls-1" d="M854.28,0h-51.8a5.68,5.68,0,0,0-5.88,5.6l-7.84,128.8a5.22,5.22,0,0,0,5.32,5.6h34.44c3.64,0,6.16-2,6.72-5.6L858.76,5.6A4.49,4.49,0,0,0,854.28,0Z"/><path class="cls-1" d="M67.08,88a2.45,2.45,0,0,0-1.27-.21l-1,.09a13.16,13.16,0,0,1-3.22.05c-1.34-.2-2.69-.29-4.18-.38a1.44,1.44,0,0,0-1.58,1,1.42,1.42,0,0,0,.61,1.71,6,6,0,0,0,2,.87,23.17,23.17,0,0,0,2.54.24l1,.07.26-.08v0h.3c.43,0,.85,0,1.27,0a6.73,6.73,0,0,0,1.32-.17l.33-.08a5.78,5.78,0,0,0,1.59-.55A1.51,1.51,0,0,0,68,89.3,1.54,1.54,0,0,0,67.08,88Z"/><path class="cls-1" d="M68.74,80.06c-.25-.41-.53-.83-.82-1.23a11.49,11.49,0,0,0-4-3.61,2.73,2.73,0,0,0-3.54.44,47.53,47.53,0,0,0-3,4.36l-.1.17a1.72,1.72,0,0,0,.57,2.1,1.29,1.29,0,0,0,.71.2,1.8,1.8,0,0,0,1.31-.61,8.41,8.41,0,0,0,.73-1l.5-.77c.25-.39.5-.77.77-1.15a1,1,0,0,1,.67-.49,1.06,1.06,0,0,1,.77.35c.36.32.7.68,1,1l.83.92c.35.39.7.79,1.06,1.17a1.73,1.73,0,0,0,1.81.53A1.88,1.88,0,0,0,69,80.75L69,80.57A2.84,2.84,0,0,0,68.74,80.06Z"/><path class="cls-1" d="M33.85,77.37a4.24,4.24,0,0,0-1.23-.59l-.29-.1-.1,0c-1.24,0-1.86.33-2.07,1.1s.35,1.37,1,1.74,1.27.73,1.86,1.12c.27.18.53.38.79.58s.48.37.74.54a1.55,1.55,0,0,0,.87.29,1.27,1.27,0,0,0,1-.44,1.24,1.24,0,0,0,0-1.89A26.41,26.41,0,0,0,33.85,77.37Z"/><path class="cls-1" d="M50,71.87a2.14,2.14,0,0,0-2.12,2,1.86,1.86,0,0,0,.53,1.35,2,2,0,0,0,1.47.59h0a1.94,1.94,0,0,0,2.07-1.88,2,2,0,0,0-2-2Z"/><path class="cls-1" d="M92.89,75.63a15.79,15.79,0,0,0-2.73,1.81,6.85,6.85,0,0,0-1.5,2.06,1.58,1.58,0,0,0,0,1.56,1.63,1.63,0,0,0,1.4.77h.06a1.35,1.35,0,0,0,1.2-.83,5.92,5.92,0,0,1,2.39-2.4,5.45,5.45,0,0,0,.91-.67,1.26,1.26,0,0,0,.1-1.9A1.36,1.36,0,0,0,92.89,75.63Z"/><path class="cls-1" d="M74.33,71.69h0a1.93,1.93,0,0,0-1.37.55,2.23,2.23,0,0,0-.62,1.6,2,2,0,0,0,.57,1.44,1.88,1.88,0,0,0,1.33.52h0a2.14,2.14,0,0,0,1.48-.68,2.2,2.2,0,0,0,.63-1.55A2,2,0,0,0,74.33,71.69Z"/><path class="cls-1" d="M134.68,0H5.6A5.29,5.29,0,0,0,0,5.6V134.4A5.29,5.29,0,0,0,5.6,140H122.08a5.92,5.92,0,0,0,6.16-5.6L139.72,5.6A5,5,0,0,0,134.68,0ZM95.48,79.69a10.72,10.72,0,0,1-6.11,3.06,4,4,0,0,0-3.65,3.13,22,22,0,0,1-6.18,10.34l-.16.15a9,9,0,0,1-1.23,1l-1.22.81c-1.61,1.07-3.27,2.17-5,3.13A13.19,13.19,0,0,1,65.1,103l-4,0H58.92a15.9,15.9,0,0,1-8.09-2.26A27.81,27.81,0,0,1,40.73,90.33C40,89,39.24,87.64,38.48,86a4.18,4.18,0,0,0-3.27-2.55,12.09,12.09,0,0,1-2.11-.54,6.47,6.47,0,0,1-4.33-4.73,2,2,0,0,1,.29-1.71,2.26,2.26,0,0,1,1.69-.89,6.45,6.45,0,0,1,4.52,1.47l.33.27c.16.13.31.26.48.38a2.09,2.09,0,0,0,1.76.41A1.94,1.94,0,0,0,39.08,77a6,6,0,0,0,.47-2.07,53.75,53.75,0,0,1,2.1-11.8,9.68,9.68,0,0,1,.35-.94l.09-.1.57.88a1.87,1.87,0,0,0,1.79,1,1.82,1.82,0,0,0,1.73-1.38,6.58,6.58,0,0,1,2.52-3.49c.27-.22.54-.43.82-.63l.67-.51a1.33,1.33,0,0,1,1.63-.12,34.39,34.39,0,0,0,8.74,3.11l.14,0a2.46,2.46,0,0,0,.39.08,1.58,1.58,0,0,0,1.8-.74,1.88,1.88,0,0,0-.27-2.11c-.58-.71-1.15-1.42-1.71-2.14-.08-.11-.16-.22-.25-.36a10.1,10.1,0,0,1,2.6.71,74.1,74.1,0,0,0,14.24,4.38c1.64.34,3.31.65,4.88.93,1.73.31,1.84.33,2.22,2.13.06.27.12.54.18.82a12.25,12.25,0,0,1,.44,3.92q-.11,1-.22,2c-.14,1.26-.27,2.52-.39,3.78-.08.87-.1,1.75-.1,2.5a1.9,1.9,0,0,0,1.24,1.82,1.71,1.71,0,0,0,2-.47c.33-.31.64-.65.94-1l.55-.58a6.88,6.88,0,0,1,5.71-2.09,1.41,1.41,0,0,1,1.26.88A3.58,3.58,0,0,1,95.48,79.69Zm8.82-35.56a7.47,7.47,0,0,1-1.88,1.33c-1.59.72-3.24,1.4-4.83,2.06l-1.85.77-.41.16-.48.18.19.26.8,1.1c.61.83,1.19,1.61,1.69,2.45s1.08,2,1.57,3c.24.48.48,1,.72,1.43a2.81,2.81,0,0,1,.11,2.37A3,3,0,0,1,98,60.94a20,20,0,0,1-2.73.61l-.57.1c-1.29.23-1.47.46-1.39,1.76.06,1,.1,1.91.15,2.86s.1,2,.16,3c0,.47-.15.62-.64.92a34.66,34.66,0,0,0-3.63,2.57c-.22.18-.43.36-.65.56a9.42,9.42,0,0,1-1.28,1c0-.05,0-.1,0-.15,0-.37,0-.69,0-1,0-.66.11-1.33.17-2a32.54,32.54,0,0,0,.22-4.26,21.32,21.32,0,0,0-1-5.34,3.29,3.29,0,0,0-2.68-2.27,92,92,0,0,1-15.78-3.91c-1.22-.44-2.44-.94-3.49-1.37A11.54,11.54,0,0,0,60.47,53l-.61,0A2.08,2.08,0,0,0,58,55c0,.16,0,.32,0,.48a3.12,3.12,0,0,0,.36,2,2.21,2.21,0,0,1-.33-.1l-1.67-.7c-1-.42-2-.85-3-1.23a4.93,4.93,0,0,0-5,.39,28,28,0,0,0-2.34,2c-.51.5-1,1-1.48,1.59l-.47.53a3,3,0,0,0-2.63-.46l-.36,0a2.3,2.3,0,0,0-1.77,1.84l-.26,1c-.44,1.61-.89,3.28-1.19,5-.27,1.5-.45,3-.62,4.54-.08.7-.16,1.39-.25,2.09a3.43,3.43,0,0,1-.07.36l-.31-.12-.9-.33-4.34-1.56a.65.65,0,0,1-.52-.69c-.06-.86-.19-1.72-.31-2.56-.07-.48-.14-1-.2-1.44a25.58,25.58,0,0,1,.62-9c.13-.57.3-1.15.46-1.71.1-.36.21-.72.3-1.08s.1-.45.15-.72l.13-.7h-.68c-.27,0-.5,0-.73,0a2.3,2.3,0,0,0-.55.14l-.08,0a1.76,1.76,0,0,1-1.81-.21,2,2,0,0,1-.46-2,7.47,7.47,0,0,1,.89-2.21,15.39,15.39,0,0,1,1.83-2.41l.71-.78a59.9,59.9,0,0,1,7.1-7l.66-.51.8-.61-.25-.2-.34-.28a4.39,4.39,0,0,0-.72-.54c-.52-.29-1.06-.57-1.59-.84l-1.06-.55c-.56-.3-.84-.55-.9-.8s.09-.6.47-1.11a5.19,5.19,0,0,1,2.89-1.89,10.94,10.94,0,0,1,7.53.41,1.74,1.74,0,0,0,1.73-.14,76,76,0,0,1,21-8.45,36.65,36.65,0,0,1,3.88-.58l1.85-.22.49-.09.14,0h2.51c1.71.81,1.9,1.28,1.32,3.1a23.34,23.34,0,0,1-1.06,2.57c-.16.34-.31.68-.46,1-.08.18-.17.35-.29.55l-.2.37-.16.29.32.07.29.08a1.61,1.61,0,0,0,.57.1c1.46-.11,2.74-.22,3.92-.35a32.81,32.81,0,0,1,7.62.12c1.14.14,2.27.31,3.4.47l2.26.32a4.3,4.3,0,0,1,2.47,1.11,1.28,1.28,0,0,1,.11,2,4.86,4.86,0,0,1-1.12.93C95.16,37,94,37.7,92.84,38.4l-1.72,1a3,3,0,0,0-.87.74l-.31.4h1.3l2.11,0c1.66,0,3.38,0,5.05.14a23.89,23.89,0,0,1,4.07.76l.07,0a4.82,4.82,0,0,1,1.65.83h0a1,1,0,0,1,.1,1.78Z"/></svg>