<?xml version="1.0" standalone="no"?>
<!DOCTYPE svg PUBLIC "-//W3C//DTD SVG 20010904//EN"
 "http://www.w3.org/TR/2001/REC-SVG-20010904/DTD/svg10.dtd">
<svg version="1.0" xmlns="http://www.w3.org/2000/svg"
 width="700.000000pt" height="700.000000pt" viewBox="0 0 700.000000 700.000000"
 preserveAspectRatio="xMidYMid meet">
<metadata>
Created by potrace 1.11, written by Peter Selinger 2001-2013
</metadata>
<g transform="translate(0.000000,700.000000) scale(0.100000,-0.100000)"
fill="#000000" stroke="none">
<path d="M3300 6994 c-205 -18 -281 -27 -385 -44 -417 -71 -827 -223 -1195
-443 -104 -62 -136 -85 -129 -91 2 -2 94 -27 204 -55 110 -28 341 -89 513
-135 600 -163 909 -215 1212 -204 99 3 123 8 175 31 33 16 68 35 77 44 17 15
20 15 44 -8 40 -37 57 -79 57 -139 -1 -144 -77 -239 -206 -256 l-44 -6 -52
-252 c-115 -549 -352 -1672 -357 -1689 -4 -14 24 -3 116 43 355 178 664 499
908 945 153 278 294 677 397 1115 20 85 42 164 50 176 30 47 226 71 342 43
160 -39 275 -152 303 -298 22 -119 -2 -322 -60 -501 -134 -415 -523 -900
-1078 -1345 -77 -62 -137 -118 -143 -133 -18 -45 96 -660 202 -1089 140 -571
340 -1048 566 -1355 192 -260 463 -412 758 -425 236 -11 370 52 544 255 456
531 741 1120 840 1738 31 196 41 329 41 560 0 1168 -524 2197 -1460 2864 -200
143 -494 305 -708 391 -314 127 -666 215 -987 249 -108 11 -471 21 -545 14z"/>
<path d="M1085 5669 c-199 -12 -332 -66 -445 -179 -101 -101 -267 -389 -375
-650 -130 -313 -209 -627 -247 -970 -16 -147 -16 -582 0 -725 94 -829 413
-1505 992 -2099 250 -256 483 -437 770 -597 384 -214 787 -350 1245 -420 134
-21 185 -23 490 -24 305 0 355 3 485 23 294 46 530 108 759 199 118 46 256
111 250 118 -2 2 -69 27 -149 55 -245 88 -376 164 -530 306 -121 112 -180 181
-281 332 -244 367 -425 842 -568 1492 -51 231 -105 510 -141 730 -30 186 -23
170 -78 170 -79 0 -118 -16 -136 -55 -9 -19 -68 -283 -130 -587 -229 -1110
-294 -1398 -327 -1466 -81 -166 -265 -262 -501 -262 -134 0 -287 33 -315 68
-7 9 -13 28 -13 43 0 15 95 440 211 946 115 505 324 1424 464 2043 140 619
270 1194 290 1279 19 85 34 156 31 158 -6 6 -298 30 -576 47 -228 14 -949 38
-1025 34 -16 0 -84 -4 -150 -9z"/>
</g>
</svg>
